<?xml version="1.0" encoding="UTF-8"?>
<svg xmlns="http://www.w3.org/2000/svg" id="Layer_1" data-name="Layer 1" viewBox="0 0 64 64" width="512" height="512"><path d="M32,58a25.832,25.832,0,0,1-18.417-7.646,2,2,0,1,1,2.834-2.825A22,22,0,0,0,54,32a2,2,0,0,1,4,0A26.029,26.029,0,0,1,32,58Z"/><path d="M8,34a2,2,0,0,1-2-2A26,26,0,0,1,50.353,13.584a2,2,0,0,1-2.825,2.832A22,22,0,0,0,10,32,2,2,0,0,1,8,34Z"/><path d="M8,34a1.992,1.992,0,0,1-1.414-.586l-4-4a2,2,0,0,1,2.828-2.828l4,4A2,2,0,0,1,8,34Z"/><path d="M8,34a2,2,0,0,1-1.414-3.414l4-4a2,2,0,0,1,2.828,2.828l-4,4A1.992,1.992,0,0,1,8,34Z"/><path d="M60,37a1.992,1.992,0,0,1-1.414-.586l-4-4a2,2,0,0,1,2.828-2.828l4,4A2,2,0,0,1,60,37Z"/><path d="M52,37a2,2,0,0,1-1.414-3.414l4-4a2,2,0,0,1,2.828,2.828l-4,4A1.992,1.992,0,0,1,52,37Z"/><path d="M32,37A10,10,0,1,1,42,27,10.011,10.011,0,0,1,32,37Zm0-16a6,6,0,1,0,6,6A6.006,6.006,0,0,0,32,21Z"/><path d="M43,47a2,2,0,0,1-2-2V41a4,4,0,0,0-4-4H27a4,4,0,0,0-4,4v4a2,2,0,0,1-4,0V41a8.009,8.009,0,0,1,8-8H37a8.009,8.009,0,0,1,8,8v4A2,2,0,0,1,43,47Z"/></svg>
