<svg viewBox="0 0 512 512" xmlns="http://www.w3.org/2000/svg" xmlns:xlink="http://www.w3.org/1999/xlink"><linearGradient id="linear-gradient" gradientUnits="userSpaceOnUse" x1="203.67" x2="450.8" y1="176.1" y2="423.23"><stop offset="0" stop-color="#288900"/><stop offset="1" stop-color="#288900" stop-opacity="0"/></linearGradient><g id="Layer_2" data-name="Layer 2"><g id="Layer_2_copy_12" data-name="Layer 2 copy 12"><g id="_22" data-name="22"><g id="background"><circle cx="256" cy="256" fill="#7c0" r="256"/></g><path d="m509.26 293.6c-14.13 96-81.54 174.64-171.21 205l-228.42-228.46 49.5-49.5 55.15 55.16 138.59-138.59z" fill="url(#linear-gradient)"/><path d="m214.28 380.29a5.51 5.51 0 0 1 -3.89-1.61l-49.5-49.49-55.15-55.19a5.5 5.5 0 0 1 0-7.78l49.5-49.5a5.5 5.5 0 0 1 3.89-1.61 5.5 5.5 0 0 1 3.89 1.61l51.26 51.28 134.72-134.68a5.5 5.5 0 0 1 7.78 0l49.5 49.49a5.5 5.5 0 0 1 0 7.78l-146.39 146.41-41.72 41.71a5.49 5.49 0 0 1 -3.89 1.58zm-96.87-110.15 96.87 96.86 45.61-45.6 134.7-134.7-41.72-41.7-134.7 134.7a5.5 5.5 0 0 1 -3.89 1.61 5.5 5.5 0 0 1 -3.89-1.61l-51.26-51.27z" fill="#fff"/></g></g></g></svg>