<svg clip-rule="evenodd" fill-rule="evenodd" height="512" stroke-linejoin="round" stroke-miterlimit="2" viewBox="0 0 32 32" width="512" xmlns="http://www.w3.org/2000/svg"><path d="m10.955 24.184c-.962.249-1.98.25-2.957-.012-1.485-.398-2.751-1.369-3.519-2.7l-.002-.003c-.769-1.331-.977-2.913-.579-4.398s1.369-2.751 2.7-3.519l.463-.268c5.345-3.086 8.633-6.649 10.366-10.679.135-.314.42-.537.757-.592s.679.066.906.32c1.398 1.56 2.585 3.021 3.618 4.467l.121-.07c.824-.476 1.804-.605 2.724-.359.92.247 1.704.848 2.18 1.673s.605 1.805.359 2.724c-.247.92-.848 1.704-1.673 2.18l-.119.069c.748 1.646 1.412 3.403 2.057 5.367.101.307.048.643-.143.904-.192.26-.497.412-.82.408-3.825-.05-7.345.332-11.248 1.983l2.227 3.856c.215.372.168.839-.116 1.161l-2.616 2.966c-.213.241-.529.365-.85.333-.32-.032-.605-.216-.766-.495zm12.877-15.724c.578.905 1.104 1.816 1.591 2.754.363-.211.628-.558.737-.963.109-.408.052-.842-.159-1.207s-.558-.632-.966-.741c-.406-.109-.839-.052-1.203.157zm-9.27 11.73c4.019-1.851 7.625-2.429 11.45-2.492-1.76-5.005-3.777-8.63-7.419-12.896-1.648 3.134-4.219 6.01-7.962 8.594 1.743 2.015 3.071 4.269 3.931 6.794zm-5.626-5.693c-.285.174-1.338.787-1.338.787-.871.503-1.508 1.332-1.768 2.305-.261.972-.124 2.008.379 2.88l.002.003c.503.872 1.332 1.508 2.305 1.768.972.261 2.008.125 2.88-.379 0 0 1.062-.608 1.358-.767-.8-2.472-2.095-4.658-3.818-6.597zm5.391 8.03c-.482.246-.971.512-1.468.799l-.067.039c.798 1.381 2.269 3.93 2.269 3.93s1.22-1.383 1.22-1.383z"/></svg>