<svg id="Layer_1" viewBox="0 0 512 512" xmlns="http://www.w3.org/2000/svg"><path d="m66.92 74.98h-11.31v-3.34c0-25.87 21.03-46.92 46.88-46.92s46.92 21.05 46.92 46.92v3.34h-25.32v-3.34c0-11.9-9.69-21.58-21.6-21.58s-21.57 9.68-21.57 21.58v3.34zm119.591 21.658v32.98c21.068-11.359 44.948-17.53 69.874-17.53 51.038 0 97.688 25.845 124.792 69.135 1.351 2.158 1.424 4.879.19 7.107-1.233 2.228-3.579 3.61-6.125 3.61h-29.269l66.771 66.748 66.748-66.748h-29.273c-2.9 0-5.5-1.787-6.538-4.495-29.522-76.999-104.791-128.733-187.295-128.733-29.061 0-57.221 6.429-82.804 18.114 7.606 3.363 12.93 10.976 12.93 19.813zm134.009 180.502c-1.46 5.2-3.51 10.16-6.11 14.75l8.53 17.46-16.41 16.41-17.49-8.5c-4.68 2.62-9.62 4.67-14.71 6.09l-6.33 18.37h-23.2l-6.33-18.38c-5.09-1.41-10.03-3.46-14.71-6.08l-17.49 8.5-16.41-16.41 8.54-17.47c-2.61-4.57-4.66-9.53-6.11-14.73l-18.39-6.32v-23.19l18.4-6.35c1.44-5.19 3.49-10.14 6.09-14.71l-8.53-17.5 16.41-16.37 17.49 8.5c4.67-2.63 9.62-4.68 14.71-6.1l6.33-18.36h23.2l6.33 18.37c5.08 1.41 10.03 3.46 14.71 6.09l17.49-8.5 16.41 16.37-8.54 17.51c2.61 4.57 4.66 9.52 6.1 14.7l18.4 6.35v23.19zm-64.14-62.84c-24.75 0-44.9 20.16-44.9 44.93s20.15 44.93 44.9 44.93 44.93-20.15 44.93-44.93-20.15-44.93-44.93-44.93zm.005 14.007c-17.037 0-30.897 13.874-30.897 30.926s13.861 30.926 30.897 30.926 30.926-13.874 30.926-30.926-13.874-30.926-30.926-30.926zm43.202 212.091c.104-3.713 3.09-6.699 6.803-6.803l13.594-.381.381-13.594c.104-3.713 3.09-6.699 6.803-6.803l13.613-.381.362-13.584c.048-1.792.781-3.497 2.048-4.764l12.92-12.92c-1.325-3.579-2.332-7.232-3.051-10.92-26.4 23.076-60.432 36.133-96.676 36.133-51 0-97.64-25.844-124.761-69.133-1.352-2.158-1.426-4.88-.193-7.108s3.58-3.611 6.126-3.611h29.269l-66.771-66.748-66.748 66.748h29.273c2.9 0 5.5 1.787 6.538 4.495 29.523 76.999 104.78 128.733 187.267 128.733 7.767 0 15.469-.465 23.076-1.36 1.097-2.316 3.414-3.951 6.134-4.023l13.612-.362.381-13.612zm-267.087-255.938v-87.82c0-4.22 3.43-7.66 7.63-7.66h124.72c4.15 0 7.66 3.51 7.66 7.66v87.82c0 4.2-3.44 7.62-7.66 7.62h-124.72c-4.2 0-7.63-3.42-7.63-7.62zm42.86-59.99c0 7.91 3.28 15.37 8.91 20.62v12.29c0 10.05 8.17 18.23 18.22 18.23s18.26-8.18 18.26-18.23v-12.29c5.63-5.25 8.9-12.71 8.9-20.62 0-15.34-12.18-27.83-27.16-27.83s-27.13 12.49-27.13 27.83zm359.92 208.861c-2.763 0-5.36 1.08-7.313 3.042-.004.003-.007.007-.011.01-4.029 4.03-4.025 10.604.011 14.657 1.944 1.944 4.544 3.02 7.312 3.02s5.369-1.076 7.323-3.03c4.025-4.042 4.03-10.617 0-14.646-1.963-1.971-4.561-3.051-7.323-3.052zm27.335-16.961c22.13 22.13 22.13 58.138 0 80.269-16.621 16.621-42.166 21.275-63.565 11.584-2.657-1.203-5.779-.634-7.839 1.427l-76.243 76.243-19.968-1.913-1.53-15.808 12.736-.339c3.717-.099 6.708-3.086 6.813-6.803l.381-13.622 13.594-.381c3.713-.104 6.698-3.09 6.803-6.803l.381-13.594 13.623-.381c3.717-.104 6.704-3.096 6.803-6.812l.464-17.42 14.24-14.241c2.061-2.061 2.629-5.182 1.429-7.836-9.685-21.409-5.03-46.956 11.583-63.568 22.139-22.138 58.158-22.138 80.297 0zm-10.1 10.121c-4.6-4.619-10.721-7.164-17.235-7.164-6.511 0-12.63 2.542-17.23 7.158-9.473 9.479-9.476 24.924.005 34.444 4.599 4.599 10.716 7.132 17.225 7.132s12.626-2.533 17.235-7.142c9.472-9.512 9.467-24.961 0-34.429zm-357.24-190.466c1.875 1.31 2.993 3.453 2.993 5.74v15.619c0 2.29 1.935 4.224 4.224 4.224 2.305 0 4.252-1.934 4.252-4.224v-15.619c0-2.287 1.117-4.431 2.993-5.74 3.699-2.584 5.908-6.902 5.908-11.551 0-7.627-5.9-13.833-13.153-13.833s-13.125 6.206-13.125 13.833c0 4.649 2.208 8.968 5.908 11.551z"/></svg>